<!DOCTYPE svg PUBLIC "-//W3C//DTD SVG 20010904//EN" "http://www.w3.org/TR/2001/REC-SVG-20010904/DTD/svg10.dtd">
<svg version="1.0" xmlns="http://www.w3.org/2000/svg" width="951px" height="713px" viewBox="0 0 9510 7130" preserveAspectRatio="xMidYMid meet">
<g id="layer101" fill="#030303" stroke="none">
 <path d="M3640 6950 l-1185 -5 -50 -25 c-54 -27 -80 -63 -65 -91 24 -43 64 -32 138 39 67 64 103 76 202 69 101 -7 168 -36 224 -98 41 -46 56 -82 56 -136 0 -23 4 -21 60 31 136 125 351 184 635 174 122 -5 138 -8 270 -52 124 -42 154 -49 263 -55 113 -7 128 -11 196 -45 89 -44 167 -123 193 -197 10 -27 20 -49 24 -49 14 0 51 85 67 156 l18 79 17 -56 c10 -32 37 -83 62 -117 69 -92 71 -92 83 -23 20 112 81 193 180 239 48 22 69 25 196 27 111 2 174 9 297 34 356 71 545 59 763 -50 43 -22 99 -56 124 -75 l45 -34 16 48 c42 122 150 190 316 199 129 7 161 -3 270 -91 35 -28 39 -29 64 -15 19 11 26 23 26 44 0 25 -7 33 -37 48 -20 10 -62 22 -95 27 -59 10 -1081 10 -3373 0z"/>
 <path d="M3420 6844 c-80 -17 -180 -53 -180 -65 0 -5 13 -9 29 -9 15 0 45 -11 65 -25 l36 -24 14 27 c21 41 58 71 112 92 43 17 45 19 19 19 -16 0 -59 -7 -95 -15z"/>
 <path d="M3675 6843 c68 -35 104 -96 105 -172 0 -40 2 -43 23 -37 12 4 44 9 70 13 48 6 48 6 41 37 -23 108 -114 174 -244 175 -25 0 -24 0 5 -16z"/>
 <path d="M5663 6851 c-79 -13 -150 -84 -167 -167 -7 -31 -7 -31 41 -37 26 -4 58 -9 71 -13 20 -6 22 -3 22 37 1 76 37 137 105 172 l30 16 -30 -1 c-16 0 -49 -4 -72 -7z"/>
 <path d="M5914 6841 c55 -22 91 -53 112 -93 l14 -27 36 24 c24 16 52 25 78 26 l41 1 -45 20 c-62 29 -159 55 -227 63 l-58 6 49 -20z"/>
 <path d="M2503 6826 c-139 -45 -228 -152 -251 -301 -31 -195 85 -396 312 -543 62 -40 184 -99 244 -117 23 -7 23 -6 9 22 -20 38 -47 170 -47 227 0 42 -2 46 -27 52 -96 21 -166 64 -223 135 -145 183 -51 399 174 399 79 0 141 -23 190 -68 l28 -27 -7 35 c-16 76 -69 140 -145 173 -57 26 -196 33 -257 13z"/>
 <path d="M6673 6820 c-66 -26 -127 -87 -147 -147 -23 -66 -21 -69 24 -30 49 42 98 57 183 57 84 0 158 -36 202 -99 27 -39 30 -50 30 -119 -1 -88 -17 -128 -84 -204 -41 -46 -145 -108 -182 -108 -39 0 -49 -11 -49 -55 0 -60 -26 -187 -45 -225 -16 -32 -16 -32 7 -25 179 54 385 198 474 332 71 107 103 231 84 330 -23 128 -91 223 -198 275 -56 28 -77 33 -156 35 -73 3 -101 -1 -143 -17z"/>
 <path d="M3894 6785 c30 -32 43 -54 59 -106 4 -12 26 -18 94 -23 76 -6 110 -14 218 -51 33 -12 -74 59 -173 113 -81 44 -209 102 -227 102 -3 0 10 -16 29 -35z"/>
 <path d="M5430 6776 c-88 -39 -273 -147 -284 -164 -3 -5 25 2 62 14 37 13 107 26 155 30 69 5 90 10 94 23 17 53 30 78 60 108 19 18 28 33 21 32 -7 0 -56 -20 -108 -43z"/>
 <path d="M3520 6797 c-19 -6 -55 -32 -80 -57 -59 -59 -85 -133 -78 -229 7 -89 39 -153 112 -225 33 -33 52 -56 41 -52 -42 16 -152 36 -205 36 -70 0 -159 -23 -223 -57 -204 -112 -237 -440 -52 -524 115 -53 245 11 247 119 1 84 -68 141 -154 127 -37 -7 -63 -25 -35 -25 24 0 57 -45 57 -77 0 -42 -39 -73 -92 -73 -53 0 -84 31 -93 97 -10 73 8 124 60 177 56 55 134 87 234 94 95 6 184 -10 356 -65 122 -40 154 -46 250 -51 198 -8 334 45 475 187 47 48 94 102 104 121 l20 35 -45 -43 c-54 -52 -155 -106 -240 -129 -136 -36 -330 -19 -443 39 -60 31 -143 115 -170 172 -63 136 -34 284 60 302 51 9 81 -2 109 -43 l25 -38 0 31 c0 51 -41 115 -90 141 -46 25 -94 28 -150 10z"/>
 <path d="M5740 6787 c-51 -27 -90 -91 -90 -146 l1 -36 13 31 c19 42 52 64 99 64 86 0 133 -99 107 -227 -16 -76 -47 -129 -114 -190 -185 -170 -562 -157 -759 25 l-50 47 19 -35 c10 -19 57 -73 104 -121 141 -142 277 -195 475 -187 96 5 128 11 251 51 172 56 253 71 353 65 194 -13 316 -124 296 -271 -10 -68 -39 -97 -98 -97 -53 0 -87 30 -87 76 0 31 34 74 59 74 27 0 -1 19 -37 25 -112 19 -191 -90 -139 -192 34 -65 150 -92 232 -54 168 76 161 366 -12 497 -115 88 -301 107 -468 48 -11 -3 3 14 32 40 34 31 64 70 85 114 30 60 33 76 33 152 0 73 -4 93 -27 136 -61 116 -179 163 -278 111z"/>
 <path d="M4198 6716 c130 -69 179 -106 271 -200 40 -42 75 -75 77 -73 2 1 -3 28 -10 59 -25 109 -91 189 -195 236 -44 20 -77 26 -151 29 l-95 4 103 -55z"/>
 <path d="M5062 6734 c-75 -37 -133 -93 -160 -154 -18 -41 -43 -140 -35 -140 3 0 38 31 77 68 91 86 179 149 298 212 l93 50 -101 0 c-96 0 -105 -2 -172 -36z"/>
 <path d="M3143 6729 c-43 -21 -83 -82 -83 -125 0 -41 21 -92 55 -132 l36 -41 -43 -11 c-108 -29 -198 -105 -246 -208 -23 -49 -27 -70 -27 -152 0 -56 6 -113 15 -140 l14 -45 6 95 c5 74 13 108 33 151 32 67 118 152 183 180 62 28 156 40 229 30 33 -5 62 -7 64 -5 2 2 -3 12 -11 21 -9 10 -24 42 -34 72 -14 38 -26 56 -44 63 -62 23 -108 99 -95 157 10 47 37 64 90 59 40 -5 44 -4 33 10 -17 20 -71 42 -105 42 -15 0 -47 -9 -70 -21z"/>
 <path d="M6135 6736 c-17 -7 -36 -20 -43 -29 -12 -13 -8 -15 27 -10 131 18 129 -167 -1 -216 -16 -6 -28 -17 -28 -24 0 -8 -13 -41 -30 -73 -16 -32 -28 -59 -27 -60 1 -1 28 2 59 7 75 12 176 -3 243 -35 64 -32 149 -119 177 -183 15 -33 23 -79 28 -143 6 -95 6 -95 19 -55 22 70 25 185 6 250 -36 125 -134 220 -263 254 l-43 12 36 41 c79 93 65 212 -30 258 -47 23 -87 25 -130 6z"/>
 <path d="M2983 6613 c-84 -82 -143 -212 -158 -348 l-6 -60 24 47 c13 25 36 63 51 83 31 41 117 100 159 111 15 3 27 8 27 10 0 2 -12 20 -26 41 -23 34 -25 45 -21 101 3 34 3 62 2 62 -2 0 -26 -21 -52 -47z"/>
 <path d="M6377 6600 c5 -51 2 -65 -20 -103 l-27 -45 28 -7 c75 -18 171 -107 212 -195 l20 -45 -6 60 c-14 139 -98 311 -182 372 l-30 22 5 -59z"/>
 <path d="M3890 6624 c-82 -16 -190 -48 -251 -76 l-71 -32 6 -39 c8 -47 32 -97 48 -97 6 0 30 11 52 24 238 140 541 165 745 62 71 -37 73 -32 6 19 -68 53 -156 97 -240 120 -59 16 -247 28 -295 19z"/>
 <path d="M5269 6616 c-119 -25 -260 -95 -315 -157 -17 -20 -14 -19 34 5 126 63 302 83 460 50 80 -16 213 -67 295 -112 47 -27 48 -27 63 -7 19 25 37 93 30 112 -8 19 -117 68 -212 93 -101 27 -265 34 -355 16z"/>
 <path d="M2673 6609 c-46 -13 -100 -71 -114 -121 -21 -80 27 -171 118 -220 93 -50 90 -52 95 54 5 94 34 185 74 229 13 15 12 18 -9 32 -25 16 -93 37 -117 36 -8 0 -30 -5 -47 -10z"/>
 <path d="M4691 6589 c-1 -19 16 -93 36 -165 68 -237 44 -387 -71 -449 l-35 -19 31 -35 c17 -19 39 -53 49 -75 23 -50 25 -152 4 -201 l-14 -35 32 25 c113 85 276 92 374 15 14 -11 29 -20 34 -20 10 0 35 86 43 150 4 25 2 79 -4 120 -20 143 -103 275 -315 500 -74 79 -126 143 -141 175 l-23 50 0 -36z"/>
 <path d="M6650 6611 c-14 -5 -40 -16 -58 -25 -31 -16 -33 -19 -18 -34 8 -10 27 -44 43 -77 22 -48 28 -79 31 -153 5 -106 2 -104 96 -54 128 69 162 212 70 299 -48 45 -108 61 -164 44z"/>
 <path d="M4664 6479 c-30 -62 -96 -146 -214 -274 -220 -237 -281 -365 -281 -579 0 -109 32 -246 72 -315 11 -18 18 -35 16 -37 -2 -2 -24 3 -48 12 -61 23 -171 23 -242 0 -172 -56 -264 -195 -255 -388 4 -75 9 -96 41 -161 49 -98 127 -177 221 -222 158 -75 304 -71 441 13 38 23 39 24 21 3 -44 -49 -196 -101 -296 -101 -46 0 -90 -32 -90 -65 0 -13 11 -37 24 -52 22 -26 30 -28 93 -28 47 0 80 6 106 19 54 27 140 108 193 182 70 98 154 292 168 389 5 37 5 36 -8 -9 -43 -147 -151 -281 -274 -339 -63 -30 -74 -32 -182 -32 -110 0 -118 2 -182 33 -87 43 -167 122 -209 209 -32 64 -34 73 -34 173 0 86 4 113 22 152 30 66 102 139 170 173 51 26 69 29 148 30 103 0 143 -17 182 -75 29 -42 29 -71 -3 -168 -24 -75 -24 -82 -10 -116 27 -66 106 -73 162 -15 27 29 29 35 29 114 l0 83 35 -18 c126 -64 296 -75 421 -28 l66 25 0 -62 c-1 -72 21 -117 69 -140 46 -21 77 -19 108 10 33 30 34 78 5 161 -51 146 13 228 181 229 72 0 94 -4 142 -27 80 -37 140 -96 174 -171 25 -54 29 -74 29 -157 0 -87 -3 -101 -34 -167 -41 -89 -132 -181 -218 -221 -53 -24 -69 -27 -173 -27 -108 0 -119 2 -180 31 -122 58 -218 171 -267 313 -28 83 -30 56 -2 -34 11 -37 19 -69 17 -71 -2 -2 -23 42 -47 97 -24 55 -47 101 -50 103 -3 3 10 -46 31 -107 58 -176 69 -315 32 -389 -36 -70 -111 -88 -164 -40 -38 33 -48 88 -27 150 8 23 12 42 9 42 -3 0 -20 -12 -39 -26 -75 -57 -99 -180 -52 -264 57 -100 188 -117 272 -35 44 42 46 33 11 -38 -19 -38 -76 -101 -208 -232 -159 -158 -186 -190 -223 -260 -76 -146 -90 -262 -44 -352 69 -137 251 -165 329 -52 20 29 23 43 20 93 -4 53 -8 62 -41 92 -31 28 -44 34 -83 34 l-47 0 27 -26 c34 -35 37 -95 4 -118 -35 -25 -85 -20 -115 10 -24 24 -25 30 -21 103 4 63 11 88 38 140 35 64 172 221 184 210 4 -4 2 -38 -4 -76 -26 -168 45 -340 164 -397 141 -67 297 -32 363 81 31 53 42 151 23 209 -24 74 -112 174 -93 106 5 -15 8 -66 8 -114 l0 -88 -37 -37 c-36 -35 -42 -38 -110 -41 -63 -3 -77 -1 -107 20 -58 39 -76 88 -75 198 1 125 12 172 79 324 75 168 93 256 77 370 -7 47 -26 127 -42 177 -34 103 -34 127 -1 47 34 -81 109 -195 166 -253 71 -71 142 -105 218 -105 51 0 62 4 88 29 58 58 21 121 -72 121 -26 0 -72 5 -101 11 -57 12 -162 61 -174 81 -4 7 12 0 37 -14 54 -31 150 -58 211 -58 150 0 323 97 408 230 116 181 81 435 -76 539 -121 80 -254 97 -372 49 -53 -22 -62 -23 -56 -10 3 10 9 52 12 94 4 70 2 83 -23 134 -17 35 -42 66 -67 84 -42 30 -135 57 -162 47 -15 -6 -15 -10 -1 -43 19 -46 19 -127 1 -162 -37 -70 -113 -113 -200 -114 -79 0 -138 25 -187 79 -50 55 -62 99 -57 197 5 101 44 191 113 265 l46 49 -30 7 c-106 23 -128 138 -44 237 98 116 158 250 151 338 l-3 43 -21 -44z"/>
 <path d="M3867 6474 c-26 -8 -50 -21 -53 -28 -3 -7 5 -39 17 -72 31 -83 106 -157 178 -174 52 -12 129 -8 174 10 19 8 18 9 -13 10 -49 1 -111 31 -144 71 -35 42 -86 146 -86 177 0 25 -7 26 -73 6z"/>
 <path d="M5465 6454 c-8 -46 -45 -121 -80 -162 -30 -36 -100 -72 -141 -72 -45 0 -9 -18 53 -26 76 -9 144 10 197 57 43 38 88 114 102 172 5 24 2 29 -27 41 -19 8 -48 17 -65 20 -30 7 -32 5 -39 -30z"/>
 <path d="M4085 6440 c-38 -11 -73 -20 -77 -20 -34 -1 72 -130 107 -130 9 0 31 11 49 25 57 43 143 75 223 82 68 6 73 7 51 19 -85 45 -238 55 -353 24z"/>
 <path d="M5045 6442 c-103 -31 -107 -38 -22 -45 80 -7 166 -39 223 -82 18 -14 40 -25 49 -25 19 0 115 94 115 113 0 21 -114 50 -215 53 -65 3 -106 -1 -150 -14z"/>
 <path d="M3704 6371 c-18 -11 -35 -25 -39 -31 -10 -16 37 -62 93 -93 48 -26 160 -62 168 -54 2 2 -14 17 -36 32 -41 28 -96 102 -106 142 -8 29 -37 30 -80 4z"/>
 <path d="M5617 6347 c-16 -40 -67 -99 -122 -142 -19 -15 -18 -16 15 -9 86 15 239 98 240 130 0 20 -47 55 -81 60 -33 5 -35 4 -52 -39z"/>
 <path d="M4348 6364 c-58 -14 -108 -36 -163 -73 l-29 -20 39 -16 c71 -30 178 8 226 81 32 50 26 52 -73 28z"/>
 <path d="M4970 6366 c0 -19 60 -81 98 -100 46 -23 92 -29 138 -16 24 7 44 16 44 19 0 4 -24 22 -54 40 -57 34 -111 53 -183 66 -35 5 -43 4 -43 -9z"/>
 <path d="M4696 6310 c-13 -62 -28 -94 -73 -152 -23 -31 -43 -65 -43 -76 0 -46 62 -69 92 -34 29 33 53 183 40 252 l-8 45 -8 -35z"/>
 <path d="M4570 5748 c-47 -100 -57 -161 -36 -230 30 -103 115 -159 206 -136 74 19 109 77 95 159 l-7 40 -19 -39 c-25 -50 -55 -66 -114 -60 -81 10 -115 62 -115 175 1 37 7 86 15 108 23 63 8 54 -25 -17z"/>
 <path d="M1345 5714 c-256 -37 -495 -132 -676 -269 -189 -141 -312 -323 -377 -551 -17 -61 -30 -90 -38 -87 -21 8 -93 -17 -114 -39 -27 -29 -27 -84 0 -98 28 -15 49 -1 81 56 14 27 31 50 36 51 4 2 36 -48 70 -109 107 -197 695 -1275 806 -1478 58 -107 113 -204 122 -215 17 -22 -8 29 -258 505 -553 1058 -659 1262 -655 1265 2 2 67 -14 143 -36 164 -47 381 -92 549 -114 90 -11 411 -34 500 -35 5 0 7 -273 4 -640 -2 -352 -1 -640 4 -640 4 0 8 26 8 58 0 137 31 1215 35 1222 2 4 71 10 152 13 255 12 562 66 831 147 72 22 136 40 141 40 5 0 -158 -321 -361 -712 -564 -1087 -588 -1135 -588 -1144 0 -10 6 2 555 1016 219 404 411 760 428 790 47 88 50 89 86 30 25 -40 36 -51 54 -48 17 2 23 11 25 35 4 35 -27 72 -62 75 -12 0 -27 2 -35 2 -9 1 -26 37 -46 101 -126 404 -432 671 -895 782 -90 22 -133 26 -300 28 -107 2 -208 1 -225 -1z m430 -59 c305 -44 536 -156 726 -352 107 -110 176 -223 225 -367 34 -98 33 -99 -28 -74 -299 120 -679 202 -1013 216 -463 20 -882 -46 -1268 -199 -55 -21 -102 -37 -105 -34 -20 20 64 236 127 329 170 247 496 427 870 481 119 18 346 18 466 0z m155 -620 c241 -33 497 -96 704 -174 116 -43 145 -73 34 -35 -228 78 -562 152 -805 178 -163 18 -500 21 -654 6 -246 -25 -531 -89 -771 -173 -71 -25 -130 -41 -134 -36 -7 12 58 39 209 90 225 75 514 136 757 159 134 12 523 4 660 -15z m-937 -161 c94 -106 306 -165 654 -180 214 -9 572 17 778 55 63 12 56 -3 -7 -18 -474 -113 -913 -135 -1363 -70 -222 32 -547 112 -528 129 19 18 301 104 422 129 2 1 22 -19 44 -45z m-777 -126 c-33 -56 -53 -69 -71 -45 -27 37 12 87 68 87 l28 0 -25 -42z m2668 23 c10 -11 16 -28 14 -38 -6 -31 -39 -21 -65 20 l-23 37 28 0 c16 0 37 -9 46 -19z"/>
 <path d="M1541 5614 c-34 -30 -48 -35 -76 -32 -39 4 -43 -2 -17 -24 78 -69 193 -59 216 18 8 28 -28 74 -58 74 -12 0 -41 -16 -65 -36z m99 1 c21 -25 3 -65 -37 -81 -35 -15 -55 -14 -110 7 l-27 10 39 18 c22 10 49 28 59 40 22 24 58 28 76 6z"/>
 <path d="M1561 5578 l-42 -33 31 -3 c37 -4 83 23 78 45 -5 27 -22 25 -67 -9z"/>
 <path d="M1150 5593 c-14 -2 -60 -14 -103 -25 -145 -38 -219 -113 -348 -352 -35 -66 -86 -143 -112 -172 -48 -53 -150 -114 -191 -114 -14 0 -17 -3 -10 -10 15 -15 138 12 211 46 91 43 186 145 258 279 63 116 98 162 149 197 30 21 30 20 -6 -18 -20 -21 -42 -52 -47 -67 -26 -69 -2 -165 55 -219 95 -89 276 -73 347 30 75 108 72 214 -10 313 l-28 34 35 -29 c19 -16 64 -65 100 -110 150 -186 205 -222 366 -232 142 -9 197 8 270 84 54 56 54 57 33 17 -29 -53 -20 -106 25 -151 67 -67 173 -47 223 41 l23 40 0 -55 c0 -124 97 -203 190 -155 57 29 76 102 40 148 -48 61 -129 54 -162 -13 l-18 -35 0 35 c0 34 -18 114 -35 153 -7 17 -6 17 29 0 34 -16 37 -16 53 0 27 26 5 39 -50 28 -40 -7 -49 -6 -64 12 -10 10 -40 32 -68 48 -83 48 -180 38 -276 -27 -39 -27 -50 -32 -44 -18 4 11 10 40 13 67 14 132 -105 240 -228 208 -60 -16 -85 -33 -117 -83 -40 -59 -39 -139 1 -194 l29 -39 -33 30 c-18 17 -57 64 -86 106 -58 82 -114 138 -163 163 -65 34 -178 51 -251 39z m70 -245 c0 -32 -26 -51 -52 -37 -24 13 -23 30 4 74 l21 37 13 -23 c7 -13 13 -36 14 -51z m611 2 c19 -11 28 -60 10 -60 -20 0 -54 37 -48 53 7 20 12 21 38 7z m409 -130 c-12 -23 -40 -27 -40 -6 0 14 14 24 38 25 10 1 10 -4 2 -19z m300 -184 c0 -14 -4 -27 -9 -31 -12 -7 -25 31 -16 45 11 18 25 10 25 -14z"/>
 <path d="M2006 5554 c-23 -22 -20 -60 9 -102 27 -40 31 -63 14 -93 -9 -18 -8 -19 8 -11 47 26 83 87 83 141 0 63 -74 106 -114 65z m72 -10 c29 -20 31 -95 2 -141 -11 -18 -21 -33 -23 -33 -2 0 -4 13 -4 29 0 16 -9 41 -21 56 -24 30 -29 74 -10 93 16 16 29 15 56 -4z"/>
 <path d="M2033 5524 c-3 -9 0 -26 7 -38 8 -11 19 -32 26 -45 12 -24 13 -23 19 13 11 55 -34 115 -52 70z"/>
 <path d="M1539 5470 c30 -26 74 -27 69 -2 -2 13 -15 18 -48 20 l-45 2 24 -20z"/>
 <path d="M2216 5461 c-3 -5 -21 -13 -39 -16 -34 -8 -63 -29 -78 -58 -9 -15 -7 -17 18 -11 75 16 91 25 102 56 11 31 9 49 -3 29z"/>
 <path d="M670 5344 c0 -11 -7 -29 -15 -40 -17 -23 -19 -43 -5 -80 l11 -27 24 46 c30 56 31 68 5 98 -19 23 -19 23 -20 3z"/>
 <path d="M1450 5301 c0 -13 -11 -36 -25 -53 -30 -35 -41 -72 -29 -98 8 -17 12 -16 53 19 50 43 55 72 22 123 -19 31 -21 31 -21 9z"/>
 <path d="M539 5266 c-13 -6 -28 -24 -33 -38 -8 -24 -5 -33 23 -68 27 -34 32 -48 29 -81 -2 -21 -1 -39 3 -39 15 0 68 71 74 100 19 85 -36 156 -96 126z m51 -16 c42 -22 45 -127 5 -160 -13 -10 -15 -9 -15 10 0 12 -13 39 -30 60 -34 43 -37 62 -14 84 18 19 28 20 54 6z"/>
 <path d="M547 5226 c-3 -7 5 -30 19 -49 13 -20 24 -41 24 -47 0 -6 5 -8 10 -5 15 9 12 68 -6 93 -17 25 -39 29 -47 8z"/>
 <path d="M1520 5237 c0 -13 -13 -36 -30 -52 -44 -42 -36 -85 16 -85 48 0 69 72 39 130 -19 36 -25 38 -25 7z m30 -61 c0 -52 -59 -90 -74 -49 -4 11 4 27 24 48 16 17 30 37 30 45 0 13 2 13 10 0 5 -8 10 -28 10 -44z"/>
 <path d="M1510 5165 c-17 -18 -21 -28 -13 -36 13 -13 43 15 43 42 0 24 -2 24 -30 -6z"/>
 <path d="M2516 5235 c-5 -13 -15 -16 -41 -13 -27 3 -32 1 -23 -9 6 -7 25 -13 43 -13 34 0 49 17 35 39 -5 9 -9 8 -14 -4z"/>
 <path d="M1590 5180 c0 -5 5 -10 11 -10 5 0 7 5 4 10 -3 6 -8 10 -11 10 -2 0 -4 -4 -4 -10z"/>
 <path d="M2032 5161 c-10 -6 -7 -12 12 -24 29 -20 42 -21 51 -7 16 26 -33 50 -63 31z"/>
 <path d="M490 5143 c0 -12 -11 -34 -24 -50 -33 -40 -46 -68 -46 -98 0 -23 3 -25 23 -19 32 10 66 34 77 55 16 30 11 85 -10 110 -19 24 -19 24 -20 2z"/>
 <path d="M1646 5144 c-7 -18 0 -34 15 -34 12 0 12 37 0 44 -5 3 -12 -1 -15 -10z"/>
 <path d="M843 5135 c-18 -8 -33 -16 -33 -18 0 -3 21 -2 47 1 50 5 78 -14 66 -46 -5 -14 -3 -14 15 2 28 24 28 41 0 60 -27 19 -53 20 -95 1z"/>
 <path d="M1958 5135 c-3 -3 9 -21 27 -40 25 -28 39 -35 68 -35 20 0 37 3 37 6 0 4 -16 22 -35 40 -31 31 -80 45 -97 29z"/>
 <path d="M805 5080 c-19 -8 -19 -9 2 -9 12 -1 25 -5 28 -11 3 -5 17 -10 31 -10 19 0 25 5 22 18 -4 19 -51 27 -83 12z"/>
 <path d="M2299 5043 c-13 -17 -13 -17 6 -3 11 8 22 16 24 17 2 2 0 3 -6 3 -6 0 -17 -8 -24 -17z"/>
 <path d="M2370 5050 c0 -5 -6 -7 -12 -5 -14 5 -46 -11 -38 -19 10 -9 60 7 60 20 0 8 -2 14 -5 14 -3 0 -5 -4 -5 -10z"/>
 <path d="M2598 4956 c-48 -23 -48 -23 -22 -34 14 -7 46 -12 72 -12 27 0 53 -5 60 -12 16 -16 16 2 1 35 -9 19 -51 51 -62 46 -1 0 -23 -11 -49 -23z"/>
 <path d="M7770 5714 c-145 -27 -199 -39 -280 -66 -134 -43 -210 -79 -321 -153 -231 -154 -384 -371 -458 -652 -11 -40 -14 -43 -45 -43 -49 0 -88 -34 -84 -74 2 -25 8 -32 28 -34 21 -2 30 6 55 48 16 27 33 49 37 48 4 -2 231 -415 503 -918 273 -503 501 -919 507 -925 10 -9 -30 71 -212 420 -350 670 -719 1389 -716 1392 2 3 48 -9 103 -26 306 -94 691 -161 930 -161 48 0 76 -5 85 -14 12 -11 17 -126 27 -602 8 -324 17 -659 22 -744 4 -92 6 153 3 598 l-4 752 33 0 c84 0 384 22 486 36 166 21 388 68 546 114 76 22 139 39 140 38 3 -3 -86 -172 -502 -968 -44 -85 -132 -254 -196 -375 -63 -121 -143 -274 -177 -340 -35 -66 -58 -115 -52 -110 6 6 232 415 502 910 270 495 495 904 500 909 5 5 16 -4 27 -24 27 -48 63 -90 79 -90 7 0 21 11 30 25 14 21 14 30 4 56 -17 41 -50 61 -102 61 l-43 1 -16 67 c-88 356 -374 645 -764 774 -169 55 -247 67 -455 71 -107 2 -206 1 -220 -1z m501 -73 c182 -37 377 -115 515 -207 78 -52 207 -176 260 -250 54 -75 106 -187 128 -270 9 -34 16 -67 16 -73 0 -5 -35 5 -77 23 -232 99 -507 167 -808 201 -204 23 -599 16 -791 -14 -251 -39 -463 -94 -664 -170 -57 -22 -106 -39 -107 -37 -8 8 44 150 83 227 159 318 488 530 914 589 108 15 421 4 531 -19z m79 -606 c244 -32 500 -95 725 -177 124 -45 119 -43 111 -57 -4 -6 -32 0 -74 15 -250 95 -554 166 -831 194 -246 24 -623 7 -891 -40 -179 -33 -493 -116 -627 -167 -7 -3 -13 -1 -13 5 0 13 70 42 223 91 233 75 487 128 727 151 137 13 504 4 650 -15z m482 -195 c70 -22 130 -44 133 -50 10 -17 -252 -85 -460 -119 -373 -62 -797 -60 -1175 5 -122 21 -310 66 -310 74 0 4 20 4 45 -1 409 -76 945 -74 1218 6 128 37 206 83 236 138 l13 25 87 -19 c47 -10 143 -37 213 -59z m-2174 -90 c-31 -54 -65 -54 -58 0 2 21 30 40 57 40 l24 0 -23 -40z m2676 19 c36 -28 34 -74 -3 -74 -19 0 -31 12 -53 48 l-27 47 28 0 c16 0 40 -10 55 -21z"/>
 <path d="M7852 5634 c-38 -26 -28 -85 19 -109 55 -29 129 -14 173 34 19 21 19 21 -17 21 -26 0 -46 9 -77 35 -46 39 -65 42 -98 19z m97 -39 c24 -19 53 -35 65 -36 15 0 8 -7 -22 -21 -55 -24 -106 -15 -135 24 -20 27 -20 28 -2 48 25 28 43 25 94 -15z"/>
 <path d="M7866 5595 c-10 -26 30 -55 74 -55 22 0 40 1 40 3 0 7 -88 67 -98 67 -5 0 -12 -7 -16 -15z"/>
 <path d="M8203 5589 c-99 -19 -182 -72 -240 -153 -78 -109 -116 -156 -126 -156 -5 0 -2 9 7 19 42 47 32 153 -20 211 -91 100 -247 83 -303 -34 -30 -61 -35 -103 -18 -158 l15 -48 -40 35 c-88 75 -214 86 -307 26 -68 -44 -102 -101 -109 -186 -5 -67 -15 -83 -26 -41 -7 30 -67 60 -99 50 -69 -22 -100 -79 -72 -137 30 -63 108 -86 169 -48 44 27 67 73 73 142 l6 60 18 -41 c33 -72 135 -99 205 -54 48 32 70 127 38 172 -25 36 -9 25 48 -31 67 -68 119 -83 252 -74 162 11 221 47 350 210 69 88 136 157 136 141 0 -6 -9 -19 -20 -29 -33 -30 -53 -98 -48 -164 5 -73 45 -142 106 -186 37 -25 55 -30 117 -33 61 -4 82 0 121 18 119 58 158 220 74 310 -17 18 -29 34 -27 36 12 12 110 -114 150 -192 111 -214 254 -322 452 -339 l60 -5 -55 18 c-133 44 -212 122 -305 304 -120 233 -207 311 -387 349 -100 20 -129 21 -195 8z m123 -214 c26 -37 7 -83 -30 -69 -25 10 -29 45 -10 89 14 32 18 36 22 20 2 -11 11 -29 18 -40z m-626 -34 c0 -11 -13 -29 -30 -41 l-30 -21 0 22 c0 25 26 59 47 59 7 0 13 -9 13 -19z m-409 -117 c10 -13 10 -17 -1 -24 -17 -10 -40 5 -40 26 0 19 25 18 41 -2z m-311 -194 c0 -16 -4 -30 -9 -30 -12 0 -24 37 -16 50 12 20 25 10 25 -20z"/>
 <path d="M7401 5549 c-11 -12 -23 -34 -26 -49 -10 -45 31 -127 75 -150 13 -7 15 -2 12 32 -3 29 1 48 15 67 32 42 37 69 19 96 -21 32 -67 33 -95 4z m71 -6 c24 -21 23 -44 -3 -78 -12 -15 -25 -41 -29 -58 l-6 -32 -22 35 c-28 45 -28 97 0 127 26 27 35 28 60 6z"/>
 <path d="M7428 5528 c-22 -18 -29 -55 -16 -87 10 -24 11 -24 17 -6 3 11 14 35 24 53 24 44 10 67 -25 40z"/>
 <path d="M7885 5480 c-10 -16 4 -30 28 -30 22 1 57 21 57 34 0 10 -78 7 -85 -4z"/>
 <path d="M7270 5453 c0 -35 29 -61 77 -71 26 -6 49 -9 51 -7 11 10 -42 65 -61 65 -13 0 -33 7 -45 16 -20 14 -22 14 -22 -3z"/>
 <path d="M8796 5332 c-17 -32 -14 -46 17 -100 37 -62 52 13 18 88 l-19 43 -16 -31z"/>
 <path d="M8016 5283 c-25 -49 -20 -70 27 -113 23 -22 45 -40 50 -40 4 0 7 18 7 39 0 27 -8 49 -25 69 -14 16 -29 40 -33 53 -9 23 -9 23 -26 -8z"/>
 <path d="M7004 5275 c-14 -35 42 -41 76 -9 12 12 11 14 -12 14 -15 0 -33 3 -42 6 -10 4 -18 -1 -22 -11z"/>
 <path d="M8885 5253 c-25 -25 -37 -63 -29 -97 8 -39 41 -93 63 -105 15 -8 16 -5 13 25 -3 26 3 43 27 76 17 23 31 52 31 63 0 48 -71 73 -105 38z m73 -5 c19 -19 14 -50 -19 -98 -16 -24 -28 -53 -25 -62 6 -27 -2 -22 -24 15 -27 44 -26 104 2 134 24 25 48 29 66 11z"/>
 <path d="M8914 5232 c-22 -14 -35 -53 -29 -83 l7 -30 29 47 c35 54 31 92 -7 66z"/>
 <path d="M6960 5232 c0 -31 29 -43 68 -27 42 18 41 25 -4 18 -29 -5 -40 -2 -50 12 -13 18 -14 18 -14 -3z"/>
 <path d="M7957 5243 c-11 -17 6 -46 38 -67 14 -9 25 -25 25 -37 0 -41 -61 -35 -68 7 -3 16 -1 16 13 -3 19 -27 35 -30 35 -7 0 18 -38 53 -57 54 -16 0 -17 -24 -2 -53 24 -46 75 -52 85 -11 5 20 0 32 -24 57 -16 18 -32 41 -34 52 -2 14 -6 16 -11 8z"/>
 <path d="M7407 5163 c-11 -10 -8 -43 3 -43 6 0 22 7 36 17 19 12 22 18 12 24 -16 10 -42 11 -51 2z"/>
 <path d="M7831 5146 c-11 -13 -11 -20 -3 -28 15 -15 24 -5 20 23 -3 21 -4 21 -17 5z"/>
 <path d="M8977 5128 c-20 -42 -21 -58 -5 -92 11 -25 93 -74 104 -63 11 11 -8 68 -31 95 -13 15 -29 43 -37 62 l-14 34 -17 -36z"/>
 <path d="M8563 5140 c-27 -11 -31 -51 -8 -70 12 -10 15 -9 15 8 0 32 25 45 78 40 l47 -5 -40 18 c-44 21 -60 22 -92 9z"/>
 <path d="M7445 5109 c-19 -17 -35 -35 -35 -40 0 -5 18 -9 40 -9 22 0 40 3 40 8 0 4 11 19 24 34 46 48 -14 55 -69 7z"/>
 <path d="M7120 5088 c0 -9 7 -19 16 -22 15 -6 15 -4 3 11 -7 10 -15 20 -16 22 -2 2 -3 -3 -3 -11z"/>
 <path d="M8607 5077 c-10 -26 13 -37 45 -21 17 9 38 12 51 8 17 -5 19 -4 10 6 -18 20 -99 25 -106 7z"/>
 <path d="M7181 5043 c7 -10 15 -20 16 -22 2 -2 3 3 3 11 0 9 -7 19 -16 22 -15 6 -15 4 -3 -11z"/>
 <path d="M7126 5041 c-9 -14 17 -29 39 -21 19 7 19 7 -2 18 -26 14 -30 15 -37 3z"/>
 <path d="M6823 4969 c-12 -4 -29 -21 -37 -38 -21 -39 -20 -44 3 -31 11 5 38 10 60 10 22 0 52 5 68 11 25 9 26 12 10 20 -46 26 -83 36 -104 28z"/>
 <path d="M4082 5059 c-97 -48 -128 -171 -69 -271 51 -88 125 -124 237 -116 81 6 175 52 225 110 32 38 95 148 95 164 -1 5 -13 -13 -27 -41 -14 -27 -56 -79 -92 -115 -77 -76 -132 -100 -232 -100 -55 0 -72 5 -111 29 -27 17 -57 48 -71 73 -52 90 -44 172 22 231 37 33 57 41 136 50 18 3 10 5 -20 5 -33 1 -64 -5 -93 -19z"/>
 <path d="M5245 5071 c61 -8 104 -30 139 -71 21 -26 26 -42 26 -90 0 -31 -6 -73 -14 -91 -18 -41 -81 -104 -119 -118 -42 -16 -137 -13 -191 5 -60 21 -158 110 -198 181 -16 29 -31 53 -33 53 -10 0 21 -65 53 -112 156 -222 471 -207 523 26 27 124 -60 228 -187 225 l-49 -2 50 -6z"/>
 <path d="M4658 4881 c-9 -51 -32 -126 -53 -173 -20 -46 -39 -89 -42 -97 -5 -10 1 -9 25 3 48 25 64 21 55 -11 -15 -52 -9 -131 10 -150 16 -16 20 -16 45 -3 15 9 35 33 46 54 39 81 12 307 -52 433 l-18 34 -16 -90z"/>
 <path d="M4916 4470 c8 -41 46 -161 102 -315 22 -61 46 -140 53 -175 10 -53 20 -73 53 -110 23 -25 54 -60 69 -79 15 -18 30 -31 33 -28 9 9 -14 150 -37 217 -26 80 -75 178 -142 284 -28 45 -70 117 -94 161 -34 63 -42 73 -37 45z"/>
 <path d="M4398 4353 c-116 -175 -159 -265 -191 -398 -20 -79 -27 -178 -18 -240 l7 -50 18 35 c10 19 40 62 66 95 47 61 47 61 53 155 5 95 16 138 100 393 19 59 34 107 32 107 -1 0 -31 -44 -67 -97z"/>
 <path d="M4458 4294 c-29 -49 -98 -345 -98 -422 0 -6 40 28 89 76 l89 88 -5 47 c-4 34 -1 54 12 73 17 26 17 27 -14 51 -17 14 -40 41 -50 60 -10 20 -20 32 -23 27z"/>
 <path d="M4927 4280 c-3 -8 -10 -40 -16 -71 -6 -30 -24 -82 -39 -115 -23 -48 -27 -66 -20 -99 12 -66 9 -275 -6 -350 -8 -38 -12 -73 -10 -77 3 -4 23 -12 44 -18 44 -12 109 0 128 23 29 34 44 208 31 337 -13 121 -100 408 -112 370z"/>
 <path d="M4755 4210 c-11 -18 -69 -43 -125 -54 -52 -10 -55 -13 -55 -41 0 -47 40 -46 102 4 45 35 103 101 89 101 -3 0 -8 -5 -11 -10z"/>
 <path d="M4354 3801 c-83 -96 -144 -228 -159 -347 -9 -63 13 -155 56 -233 16 -31 74 -115 128 -188 132 -177 145 -209 146 -343 0 -98 -2 -109 -29 -158 -82 -147 -231 -152 -246 -9 l-6 52 -17 -39 c-54 -123 21 -240 145 -223 38 5 39 4 23 -13 -9 -10 -40 -28 -68 -40 -94 -41 -224 -12 -281 63 -85 111 -39 281 92 339 48 22 184 26 257 9 l40 -10 -30 25 c-63 51 -177 67 -275 38 -108 -32 -186 -109 -216 -212 -22 -73 -14 -137 25 -216 35 -71 79 -113 158 -149 97 -44 247 -23 322 46 19 17 25 19 29 8 9 -27 55 -61 95 -72 74 -20 150 8 184 67 l19 33 18 -34 c20 -37 84 -75 127 -75 62 0 137 40 151 81 4 11 10 9 29 -8 75 -69 225 -90 322 -46 80 37 123 78 159 151 63 127 39 258 -64 354 -106 100 -302 117 -403 34 l-30 -25 45 10 c71 17 200 13 245 -6 135 -56 185 -229 98 -343 -56 -74 -186 -103 -280 -62 -28 12 -59 30 -68 40 -16 17 -15 18 23 13 124 -17 200 102 145 225 l-17 37 -5 -52 c-5 -36 -14 -60 -31 -78 -22 -23 -31 -26 -71 -23 -59 6 -107 42 -145 110 -27 49 -29 61 -29 158 0 98 2 110 32 170 18 36 73 119 122 185 184 244 210 340 145 533 -26 78 -75 163 -130 225 -40 44 -43 41 -11 -11 59 -93 97 -215 97 -313 0 -118 -34 -186 -208 -413 -104 -137 -152 -257 -152 -386 0 -67 30 -198 65 -280 31 -73 32 -128 4 -164 -17 -21 -29 -26 -66 -26 -40 0 -51 5 -82 38 l-36 38 -36 -38 c-31 -33 -42 -38 -82 -38 -37 0 -49 5 -66 26 -28 36 -27 91 4 164 35 82 65 213 65 281 0 65 -30 190 -59 248 -12 22 -71 107 -133 188 -145 194 -161 228 -162 358 -1 115 23 207 81 302 18 31 32 57 31 58 -2 1 -17 -15 -34 -34z"/>
 <path d="M5180 3473 c0 -16 -88 -111 -109 -118 -12 -4 -22 -24 -30 -63 -18 -81 -60 -153 -152 -262 -103 -122 -132 -169 -171 -271 -28 -74 -32 -96 -32 -184 0 -64 6 -116 16 -145 l15 -45 -5 100 c-10 211 29 290 329 665 33 41 75 107 94 145 33 65 62 172 50 183 -3 3 -5 1 -5 -5z"/>
 <path d="M4756 3309 c-50 -110 -224 -149 -343 -79 -40 24 -41 17 -5 -41 94 -148 288 -196 446 -111 83 45 125 107 142 212 l6 36 -69 -4 c-48 -3 -80 1 -107 12 -21 9 -41 16 -45 16 -3 0 -14 -19 -25 -41z"/>
 <path d="M4575 2989 c40 -59 72 -152 81 -238 l7 -63 22 68 c29 93 66 162 120 228 l45 56 -42 -18 c-55 -22 -178 -22 -229 0 l-36 16 32 -49z"/>
 <path d="M4822 2812 c-72 -134 -98 -337 -59 -463 31 -101 92 -138 137 -82 27 35 21 79 -20 135 -47 64 -64 130 -63 238 0 67 7 114 21 160 12 35 20 66 18 67 -2 2 -17 -23 -34 -55z"/>
 <path d="M1492 2562 c-30 -20 -55 -116 -60 -227 -5 -120 7 -199 38 -261 18 -35 19 -41 5 -81 -8 -24 -15 -57 -15 -72 0 -28 -2 -29 -62 -36 -229 -26 -406 -129 -522 -304 -71 -105 -132 -151 -223 -165 -93 -14 -198 36 -237 113 -51 98 -9 238 86 287 37 19 125 21 159 4 80 -41 93 -103 34 -160 -40 -39 -45 -72 -14 -94 39 -27 94 13 104 76 10 55 -32 139 -87 176 -62 40 -146 43 -217 5 -159 -84 -148 -319 19 -403 82 -41 186 -32 260 21 23 17 41 27 39 22 -2 -4 -17 -32 -33 -62 -87 -167 -93 -331 -16 -451 101 -158 315 -175 409 -33 47 70 42 163 -10 212 -33 31 -38 26 -22 -21 22 -63 9 -114 -41 -165 -33 -33 -51 -43 -91 -49 -97 -14 -180 30 -226 119 -24 45 -36 142 -28 212 l6 50 1 -61 c3 -112 51 -201 126 -235 117 -53 214 10 204 133 -5 58 -23 99 -96 223 -23 39 -44 86 -47 105 -5 31 -3 29 14 -15 25 -60 58 -98 112 -126 130 -66 297 -3 334 126 28 95 -10 183 -99 231 -87 48 -186 20 -186 -52 0 -55 55 -68 103 -26 16 14 19 14 35 -1 10 -11 17 -33 17 -58 0 -56 -38 -89 -102 -89 -38 0 -50 5 -79 34 -31 31 -34 39 -34 95 0 61 15 106 48 144 8 9 13 19 10 22 -9 9 -58 -62 -73 -106 -38 -108 7 -207 102 -225 122 -23 215 109 132 187 -32 30 -32 43 -1 51 31 8 80 -18 97 -53 22 -41 23 -135 3 -174 -67 -128 -262 -143 -357 -28 -58 71 -66 184 -17 267 72 123 216 196 387 196 l76 0 12 -52 c24 -106 63 -115 91 -19 18 61 21 61 128 25 110 -38 211 -91 332 -174 327 -224 543 -357 754 -462 326 -163 628 -242 854 -224 386 32 695 259 983 722 58 94 69 119 69 155 0 77 -42 184 -97 249 -31 37 -100 90 -117 90 -7 0 -23 -31 -36 -70 -13 -38 -27 -70 -31 -70 -3 0 2 30 12 67 29 102 27 110 -18 75 -46 -36 -92 -52 -147 -52 -70 0 -86 -9 -86 -43 0 -23 12 -42 54 -84 49 -49 58 -54 92 -51 31 2 43 10 61 37 33 48 29 33 -15 -62 -47 -98 -108 -200 -170 -281 -53 -69 -178 -195 -225 -227 l-32 -22 33 35 34 36 -54 -27 c-47 -23 -65 -26 -153 -26 -93 0 -105 2 -166 32 -72 36 -157 114 -196 180 -22 38 -29 43 -62 43 -20 0 -54 -9 -74 -19 l-37 -19 -6 27 c-9 37 -51 108 -69 115 -33 12 -13 26 38 26 81 0 141 -41 256 -178 53 -62 116 -126 141 -142 62 -40 160 -64 219 -54 l46 8 -52 7 c-56 7 -124 38 -161 72 -71 65 -99 180 -68 275 34 101 128 144 190 87 34 -31 42 -54 50 -144 13 -131 48 -184 132 -196 50 -8 120 26 151 74 30 45 31 129 2 207 -29 78 -116 164 -194 193 -87 33 -136 36 -211 16 -152 -41 -250 -205 -210 -355 16 -63 23 -69 -76 69 -95 134 -219 198 -369 189 -98 -6 -171 -40 -233 -109 -40 -44 -91 -146 -80 -158 3 -3 23 14 47 37 51 49 82 62 150 62 133 -1 228 -106 197 -220 -15 -54 -61 -105 -116 -126 -53 -20 -143 -15 -193 11 -36 18 -261 228 -250 233 14 6 100 -41 110 -60 16 -30 26 -14 32 52 15 165 135 275 325 298 l67 8 -55 8 c-64 9 -176 -11 -237 -43 -55 -28 -111 -93 -125 -146 l-12 -44 -21 37 c-29 52 -107 107 -189 134 -102 33 -250 33 -321 -1 l-50 -23 70 -19 c51 -14 76 -16 93 -9 13 6 24 10 25 10 1 0 3 -12 3 -26 2 -20 -2 -24 -15 -19 -91 35 -290 60 -380 48 -44 -7 -76 -3 -161 19 -88 22 -133 30 -212 37 -14 2 -8 58 7 71 12 10 16 8 24 -11 l10 -24 0 25 c0 14 -5 38 -12 54 -11 25 -10 35 10 75 44 90 55 236 28 366 -21 99 -61 144 -103 117z m88 -143 c32 -59 17 -234 -20 -234 -28 0 -41 46 -37 137 4 105 30 149 57 97z m2810 -354 c-20 -41 -80 -105 -99 -105 -20 0 -61 43 -61 65 0 28 13 39 71 54 26 7 59 21 75 32 37 24 41 10 14 -46z m-453 -119 c18 -9 35 -21 39 -27 5 -8 3 -9 -7 -4 -7 5 -4 -3 8 -18 29 -37 36 -91 23 -169 -13 -76 -3 -108 33 -108 59 1 85 77 53 155 -18 43 -12 46 9 5 8 -16 15 -52 15 -80 0 -44 -5 -56 -29 -81 -35 -34 -59 -37 -89 -9 -12 12 -22 22 -23 23 -1 1 -4 55 -8 119 -7 128 -17 154 -79 193 -17 11 -31 23 -32 27 0 9 48 -5 87 -26z m-2379 -128 c-6 -18 -25 -20 -31 -3 -5 10 0 15 14 15 12 0 19 -5 17 -12z m530 -34 c96 -24 219 -81 300 -136 26 -18 94 -78 152 -133 58 -56 122 -114 143 -129 21 -16 36 -31 33 -33 -12 -12 -314 153 -501 275 -71 47 -179 109 -240 139 l-110 54 65 -7 c36 -3 107 -17 158 -30z m349 18 c-20 -22 -22 -53 -5 -70 19 -19 -3 -13 -52 13 -25 13 -39 24 -32 25 7 0 30 11 50 25 43 29 62 33 39 7z m138 -79 c-29 -7 -45 -23 -45 -44 0 -18 -3 -17 -40 7 -41 27 -51 37 -27 28 7 -2 24 0 38 5 13 5 40 9 59 9 21 0 27 -2 15 -5z m825 -147 c0 -2 3 -11 6 -19 4 -11 -4 -17 -26 -22 -75 -16 -129 -102 -114 -181 6 -34 5 -35 -14 -25 -36 19 -43 76 -17 138 19 45 40 70 80 94 26 17 85 27 85 15z m82 -111 c107 -96 251 -133 388 -101 14 4 -7 -10 -46 -29 -95 -48 -210 -69 -339 -62 -129 6 -171 23 -181 71 -9 50 29 123 76 148 19 10 39 18 43 18 5 0 31 -20 59 -45z m-2579 -76 c8 -19 30 -59 50 -90 48 -76 67 -124 67 -174 0 -36 -5 -48 -31 -69 -57 -48 -137 -28 -174 44 -39 75 -26 232 27 342 l31 63 8 -41 c4 -22 14 -56 22 -75z m2334 -93 c91 -45 331 -62 443 -32 93 26 108 28 65 7 -122 -59 -363 -86 -544 -62 -88 12 -267 54 -278 65 -4 3 14 6 38 6 61 0 117 17 164 50 l40 28 20 -23 c11 -13 34 -30 52 -39z"/>
 <path d="M4370 2085 c-7 -8 -33 -21 -59 -29 -38 -11 -46 -17 -46 -37 0 -54 60 -25 110 54 19 29 16 37 -5 12z"/>
 <path d="M2069 1751 c46 -23 145 -81 220 -130 152 -99 254 -162 291 -180 20 -9 18 -5 -10 19 -164 147 -309 243 -438 290 -131 47 -159 48 -63 1z"/>
 <path d="M3369 1431 c-34 -34 -39 -79 -11 -104 43 -39 233 -49 357 -18 l70 17 -73 6 c-82 8 -170 44 -236 97 -48 39 -70 39 -107 2z"/>
 <path d="M837 1344 c-31 -112 -18 -223 32 -261 24 -18 66 -16 84 5 28 30 20 67 -30 139 -31 45 -51 86 -58 122 l-11 55 -17 -60z"/>
 <path d="M3121 1308 c-18 -12 -49 -27 -69 -34 l-37 -12 40 -10 c149 -35 309 -48 425 -34 73 9 73 9 22 11 -70 1 -186 20 -234 37 -35 12 -42 11 -71 -6 -43 -27 -54 -25 -21 3 l27 24 -21 21 c-12 12 -23 22 -24 21 -2 0 -18 -10 -37 -21z"/>
 <path d="M7937 2546 c-67 -102 -68 -389 -1 -491 12 -19 12 -27 -1 -65 -19 -53 -19 -55 0 -40 20 17 35 3 38 -35 2 -25 -1 -28 -40 -31 -64 -5 -159 -23 -222 -43 -47 -15 -71 -16 -132 -9 -95 12 -279 -12 -372 -48 -11 -4 -13 1 -10 20 4 21 8 23 31 15 20 -6 45 -4 92 10 l65 19 -50 23 c-160 72 -447 -5 -510 -138 l-18 -37 -12 46 c-6 26 -24 62 -38 82 -55 72 -227 128 -332 108 -47 -9 -48 -10 -13 -11 114 -3 214 -46 281 -121 49 -54 74 -113 84 -198 l6 -53 31 29 c25 23 81 52 103 52 2 0 -45 -48 -104 -106 -123 -123 -177 -154 -263 -154 -114 1 -191 66 -198 169 -5 68 12 108 60 144 98 73 232 59 309 -31 l31 -37 -6 35 c-10 58 -69 141 -127 183 -155 110 -368 82 -505 -65 -17 -18 -55 -68 -83 -110 -28 -43 -53 -78 -55 -78 -2 0 3 19 11 43 32 92 -3 223 -80 300 -58 58 -117 81 -207 81 -66 1 -85 -4 -144 -33 -38 -18 -86 -51 -107 -73 -48 -49 -88 -133 -96 -198 -13 -109 57 -195 158 -195 91 0 134 59 149 199 10 94 18 115 56 145 87 69 194 -27 194 -174 0 -79 -18 -127 -68 -178 -46 -48 -82 -68 -152 -83 -52 -11 -53 -12 -25 -19 40 -11 139 11 199 43 27 15 76 57 110 96 184 209 219 235 309 236 26 0 47 -3 47 -6 0 -4 -13 -22 -30 -40 -16 -19 -35 -53 -41 -76 -7 -24 -14 -44 -15 -46 -1 -2 -17 6 -35 17 -20 12 -51 21 -75 21 -37 0 -43 -3 -55 -32 -7 -18 -40 -60 -74 -94 -133 -136 -311 -174 -460 -99 l-50 25 45 -41 45 -41 -48 33 c-63 43 -199 186 -261 272 -51 72 -166 287 -166 309 0 7 8 0 18 -15 33 -54 91 -48 156 17 43 43 65 91 48 108 -5 5 -38 12 -73 15 -70 5 -141 32 -177 66 l-24 22 7 -30 c4 -16 14 -56 22 -89 14 -56 12 -91 -2 -44 -22 68 -48 128 -56 128 -27 0 -105 -68 -140 -123 -41 -63 -79 -168 -79 -219 0 -35 26 -83 126 -233 205 -309 406 -488 647 -579 120 -45 212 -61 357 -60 384 0 809 187 1490 653 153 106 271 169 384 207 96 33 103 32 116 -17 14 -50 31 -79 47 -79 20 0 43 42 49 93 l7 49 107 -4 c94 -4 114 -8 176 -37 80 -37 155 -106 190 -173 28 -55 33 -145 10 -199 -18 -44 -71 -94 -118 -113 -71 -30 -180 -15 -231 32 -92 83 -65 282 39 282 17 0 37 -7 44 -15 10 -12 7 -17 -14 -26 -40 -19 -54 -76 -30 -126 25 -51 74 -76 136 -69 86 9 128 60 128 153 0 55 -34 137 -70 168 -22 18 -21 17 4 -20 57 -85 59 -178 4 -233 -26 -27 -38 -32 -80 -32 -39 0 -54 5 -73 25 -28 27 -34 89 -12 119 12 16 15 16 53 -5 46 -26 69 -21 86 16 24 54 -53 106 -134 91 -124 -23 -194 -174 -135 -287 85 -160 334 -154 419 10 16 30 28 45 28 34 0 -10 -29 -68 -65 -128 -77 -130 -96 -196 -74 -258 28 -80 117 -109 205 -67 69 34 114 116 114 207 0 26 5 43 11 43 9 0 10 -23 6 -82 -9 -106 -43 -180 -104 -222 -87 -60 -216 -39 -270 43 -25 37 -31 109 -13 156 9 24 8 25 -10 15 -51 -27 -73 -114 -46 -185 21 -54 84 -111 140 -126 142 -39 283 52 330 211 35 117 10 243 -81 411 -2 4 21 -6 52 -22 114 -57 220 -45 300 35 105 105 94 268 -23 351 -40 27 -51 30 -122 30 -87 0 -109 -10 -164 -78 -23 -30 -31 -50 -34 -95 -4 -51 -1 -62 19 -85 52 -58 129 -25 95 40 -8 16 -26 39 -40 52 -67 62 6 151 124 151 60 0 96 -17 137 -64 42 -46 57 -97 50 -164 -7 -68 -42 -123 -99 -155 -123 -70 -272 -25 -363 109 -86 129 -137 178 -255 247 -52 30 -199 73 -282 82 -57 6 -57 7 -63 43 -4 20 -12 54 -20 74 -10 30 -11 40 0 55 84 119 53 513 -40 513 -13 0 -29 -10 -38 -24z m35 -190 c4 -115 -9 -176 -38 -176 -23 0 -34 44 -34 133 0 61 4 89 17 106 l16 24 19 -23 c10 -12 19 -41 20 -64z m-2786 -276 c63 -17 74 -26 74 -61 0 -27 -30 -59 -56 -59 -25 0 -77 55 -100 105 -32 68 -31 82 5 53 16 -14 51 -31 77 -38z m464 -110 c0 -5 -7 -10 -16 -10 -26 0 -81 -63 -93 -105 -6 -22 -11 -80 -11 -128 0 -80 -2 -90 -25 -112 -13 -14 -33 -25 -44 -25 -32 0 -71 41 -78 82 -7 44 13 122 35 140 12 10 12 6 -3 -21 -38 -75 -15 -171 40 -171 40 0 45 19 39 131 -6 102 -5 105 22 146 19 28 43 49 73 62 53 23 61 25 61 11z m2318 -152 c-6 -18 -25 -20 -31 -3 -5 10 0 15 14 15 12 0 19 -5 17 -12z m-823 -57 c-3 -2 -23 -12 -45 -22 -40 -18 -40 -18 -30 2 12 21 5 59 -11 59 -5 0 -9 5 -9 11 0 5 22 -2 49 -18 28 -15 48 -29 46 -32z m470 51 c-6 -5 -41 -21 -78 -37 -38 -15 -105 -51 -150 -80 -45 -28 -125 -79 -177 -112 -118 -75 -279 -164 -366 -204 l-67 -29 94 88 c249 234 315 279 499 336 100 32 267 57 245 38z m-619 -93 l45 -12 -38 -23 -38 -23 -5 22 c-3 12 -17 27 -30 34 l-25 13 23 0 c13 0 43 -5 68 -11z m-828 -153 c31 -16 74 -61 91 -93 6 -12 11 -47 11 -77 0 -44 -4 -57 -19 -66 -28 -15 -28 -14 -24 38 7 74 -27 131 -94 157 -43 18 -50 24 -42 38 12 21 41 22 77 3z m-50 -76 c48 -29 73 -76 70 -130 -3 -41 -6 -47 -42 -64 -94 -46 -341 -28 -474 34 -69 32 -79 46 -21 30 110 -32 278 20 368 114 40 41 54 44 99 16z m2534 -47 c32 -74 48 -142 48 -213 0 -86 -14 -133 -51 -170 -65 -65 -179 -23 -179 65 0 38 28 102 94 209 20 33 36 65 36 70 0 18 21 86 26 86 3 0 15 -21 26 -47z m-2301 -99 c25 -30 93 -56 163 -63 l71 -6 -80 -22 c-155 -43 -259 -56 -415 -50 -87 3 -169 12 -205 21 -77 21 -177 58 -172 63 3 2 40 -6 83 -18 93 -25 253 -30 349 -9 85 18 162 54 170 79 8 25 18 27 36 5z m2396 -91 c-3 -10 -5 -4 -5 12 0 17 2 24 5 18 2 -7 2 -21 0 -30z"/>
 <path d="M5125 2062 c46 -69 111 -95 103 -40 -2 15 -13 24 -38 31 -19 5 -47 18 -63 29 l-29 21 27 -41z"/>
 <path d="M7402 1765 c-93 -32 -190 -81 -268 -137 -79 -55 -233 -181 -233 -190 -1 -9 111 58 289 173 80 51 183 113 230 136 95 48 89 54 -18 18z"/>
 <path d="M5992 1410 c-77 -52 -117 -67 -216 -79 l-61 -7 79 -18 c59 -14 104 -17 185 -14 116 6 153 17 170 55 20 45 -26 113 -77 113 -4 0 -40 -22 -80 -50z"/>
 <path d="M8628 1350 c-4 -37 -14 -63 -36 -93 -18 -23 -42 -61 -54 -85 -21 -40 -21 -45 -7 -70 12 -22 22 -27 54 -27 33 0 43 5 62 33 32 49 39 112 19 201 -20 94 -32 107 -38 41z"/>
 <path d="M6311 1309 c-26 -21 -22 -33 21 -55 21 -11 43 -14 77 -9 53 7 91 25 55 25 -12 0 -46 13 -76 29 -53 27 -55 28 -77 10z"/>
 <path d="M6240 1268 c-38 -15 -168 -37 -235 -39 l-60 -1 60 -10 c58 -9 267 -4 312 8 21 6 21 7 -13 30 -19 13 -36 24 -37 23 -1 0 -13 -5 -27 -11z"/>
 <path d="M4637 2515 c-3 -22 -9 -67 -12 -100 -4 -33 -13 -68 -21 -79 -32 -47 -5 -99 41 -78 43 20 51 52 32 135 -10 39 -21 92 -25 117 l-9 45 -6 -40z"/>
 <path d="M4721 2146 c-12 -13 -40 -32 -62 -41 -22 -10 -38 -21 -37 -24 2 -3 19 -37 39 -76 33 -64 78 -209 80 -259 0 -12 13 27 29 85 27 102 78 220 100 234 19 12 10 23 -26 35 -20 7 -50 25 -68 41 l-33 28 -22 -23z"/>
 <path d="M3702 2070 c-133 -44 -224 -157 -229 -288 l-2 -67 12 65 c17 85 44 135 104 191 65 61 131 83 227 77 141 -9 261 -93 323 -226 40 -86 67 -105 109 -77 24 16 26 21 22 76 -5 72 -41 126 -116 180 -114 81 -317 112 -450 69z"/>
 <path d="M5510 2074 c-173 -45 -290 -157 -290 -276 0 -29 30 -68 53 -68 27 0 56 32 85 94 39 83 105 149 190 189 60 29 77 32 157 32 81 0 95 -3 143 -29 85 -47 144 -128 158 -215 4 -23 11 -41 17 -41 10 0 6 30 -13 102 -13 47 -63 113 -118 155 -88 67 -252 91 -382 57z"/>
 <path d="M3450 1980 c-59 -10 -111 -32 -156 -66 l-36 -28 44 -22 c24 -12 64 -44 89 -71 l47 -49 6 58 c6 61 22 102 63 156 27 36 27 36 -57 22z m-14 -111 c-3 -17 -6 -43 -6 -57 0 -25 0 -25 -36 11 -47 46 -38 64 40 76 5 0 6 -13 2 -30z"/>
 <path d="M5982 1963 c39 -43 60 -90 65 -155 3 -32 8 -58 11 -58 3 0 21 18 40 40 19 23 57 54 84 69 l50 29 -34 25 c-53 39 -91 55 -159 66 -87 15 -86 15 -57 -16z m139 -90 c15 -13 14 -17 -15 -46 l-31 -32 -12 45 c-7 25 -12 48 -13 53 0 11 52 -3 71 -20z"/>
 <path d="M3683 1834 c-18 -9 -39 -27 -48 -40 -18 -27 -10 -31 16 -8 22 20 82 23 103 5 8 -7 20 -28 26 -47 10 -28 9 -40 -7 -72 -16 -33 -22 -37 -56 -37 -38 0 -47 -11 -25 -33 16 -16 70 -16 86 0 9 9 12 6 12 -16 0 -15 -4 -25 -10 -21 -6 4 -10 -8 -10 -29 0 -28 8 -41 43 -71 26 -24 33 -33 17 -25 -44 22 -70 53 -76 91 -4 26 -12 39 -26 43 -18 4 -20 1 -15 -30 8 -49 40 -89 87 -108 45 -18 116 -21 125 -6 3 6 -3 10 -15 10 -42 0 -108 49 -123 93 -10 28 7 19 21 -11 26 -59 127 -89 197 -58 29 13 29 14 -29 14 -66 1 -96 17 -133 72 -19 28 -23 46 -23 117 0 103 -18 149 -66 169 -40 17 -32 17 -71 -2z"/>
 <path d="M5741 1837 c-50 -26 -64 -58 -66 -160 -1 -78 -5 -100 -24 -131 -30 -48 -72 -69 -141 -69 -54 0 -54 0 -25 -13 100 -43 215 18 215 114 0 30 2 32 20 22 30 -16 71 -8 87 17 14 21 14 22 -20 16 -29 -4 -37 -1 -55 22 -28 35 -28 85 -1 119 27 34 88 37 120 5 11 -11 23 -19 25 -16 9 9 -41 60 -72 73 -40 17 -34 17 -63 1z"/>
 <path d="M1285 1815 c-33 -8 -65 -14 -71 -14 -5 -1 -19 -8 -30 -16 -18 -14 -17 -14 9 -5 51 18 164 12 243 -14 19 -6 21 -3 16 21 -3 16 -10 31 -16 35 -16 11 -84 8 -151 -7z"/>
 <path d="M8050 1806 c-14 -39 -13 -49 7 -41 48 18 125 27 193 23 l75 -5 -55 17 c-31 10 -90 21 -133 25 l-77 7 -10 -26z"/>
 <path d="M555 1811 c-48 -12 -84 -40 -112 -88 -50 -87 -27 -192 55 -244 50 -31 139 -48 169 -30 15 8 10 10 -26 11 -155 1 -237 163 -135 265 31 32 40 35 90 35 45 0 59 -4 80 -25 19 -19 26 -22 30 -10 21 53 -71 105 -151 86z"/>
 <path d="M8860 1808 c-42 -11 -80 -45 -80 -69 0 -29 17 -31 44 -4 20 20 35 25 74 25 83 0 132 -56 132 -149 0 -39 -6 -56 -26 -81 -30 -35 -92 -70 -126 -70 -16 0 -19 -3 -11 -11 17 -17 99 6 142 38 36 28 70 93 71 133 1 123 -110 218 -220 188z"/>
 <path d="M540 1693 c-40 -35 -50 -95 -25 -142 33 -65 148 -90 233 -51 23 10 42 22 42 25 0 3 -13 -1 -29 -9 -105 -55 -217 -12 -228 86 -7 58 29 105 85 111 l37 4 -42 1 c-34 2 -49 -4 -73 -25z"/>
 <path d="M8912 1704 c36 -19 48 -43 48 -94 0 -76 -63 -128 -145 -118 -18 2 -31 0 -29 -4 9 -15 99 -8 133 10 67 33 94 106 62 165 -13 25 -60 57 -83 57 -7 -1 -1 -7 14 -16z"/>
 <path d="M2950 1681 c14 -11 28 -21 32 -21 14 0 48 -69 48 -98 0 -43 -52 -86 -93 -78 -42 8 -57 24 -57 57 0 32 39 65 65 55 25 -9 17 21 -11 43 -37 29 -77 27 -114 -6 -89 -80 -5 -242 125 -243 86 0 146 55 152 142 7 91 -40 152 -127 164 l-45 6 25 -21z"/>
 <path d="M6473 1679 c-46 -23 -83 -82 -83 -135 0 -46 40 -115 80 -136 45 -25 129 -20 168 9 111 82 88 243 -34 243 -14 0 -36 -11 -49 -26 -31 -33 -31 -42 -2 -37 26 5 67 -29 67 -57 0 -24 -46 -60 -76 -60 -40 0 -76 40 -76 84 0 44 23 80 72 114 l33 22 -29 0 c-16 0 -48 -9 -71 -21z"/>
 <path d="M4880 1608 c53 -98 109 -237 159 -390 42 -130 51 -173 28 -128 -33 62 -39 71 -43 67 -2 -2 7 -28 20 -58 23 -49 33 -96 50 -217 l7 -44 -27 21 c-29 23 -83 28 -102 9 -18 -18 -15 -24 16 -23 21 0 28 -5 30 -23 5 -31 -15 -52 -48 -52 -40 0 -64 32 -57 74 4 28 3 34 -9 29 -20 -7 -19 -3 26 80 84 155 96 235 43 277 -23 18 -27 28 -24 65 5 80 -22 144 -96 229 -38 43 -76 90 -86 105 l-18 26 7 -30 c4 -16 15 -44 25 -61 24 -40 24 -47 0 -32 -11 7 -18 14 -16 18 2 3 -7 5 -20 5 -13 0 -22 -3 -20 -6 2 -3 -5 -13 -17 -23 -15 -13 -19 -26 -16 -51 3 -30 1 -34 -25 -38 -33 -4 -33 -3 22 88 65 106 52 118 -29 28 -91 -101 -114 -148 -117 -236 -1 -60 -4 -70 -27 -88 -14 -11 -26 -24 -26 -29 0 -7 -63 -106 -76 -119 -5 -5 44 152 78 249 16 47 56 141 89 210 32 69 50 114 39 100 -38 -47 -166 -315 -225 -472 -33 -87 -62 -151 -65 -142 -5 12 -10 10 -30 -11 -21 -22 -32 -26 -74 -24 -47 3 -50 1 -59 -25 -11 -34 2 -46 54 -46 26 0 44 8 63 26 14 15 26 31 26 37 0 6 2 8 5 5 8 -8 -30 -89 -63 -135 -40 -54 -86 -70 -138 -48 -41 17 -54 14 -34 -10 7 -8 8 -15 2 -15 -20 0 -32 26 -19 40 9 10 9 11 0 6 -7 -4 -25 2 -41 14 -68 50 -158 32 -302 -60 -52 -33 -105 -63 -117 -67 -35 -8 -28 -21 19 -33 75 -21 112 -9 263 84 21 13 17 7 -14 -20 l-44 -40 26 -17 c42 -28 79 -21 135 23 27 22 56 40 63 40 7 0 25 -12 40 -26 l28 -27 -6 24 c-4 18 2 13 26 -19 56 -76 111 -81 148 -15 12 21 38 92 58 158 19 66 37 125 40 130 2 6 1 -43 -2 -108 -3 -67 -2 -122 3 -125 5 -4 14 -16 20 -26 19 -35 61 -59 113 -64 36 -3 49 -8 42 -16 -18 -22 -51 -136 -51 -178 0 -47 27 -115 54 -138 22 -18 79 -18 100 -1 26 21 19 77 -20 164 -42 92 -47 156 -18 206 10 17 22 31 26 31 5 0 5 12 2 26 -13 50 12 16 41 -57 29 -71 47 -81 25 -13 -7 19 -9 38 -6 41 3 3 1 14 -5 24 -21 39 28 78 59 47 16 -16 15 -50 0 -67 -11 -11 -10 -12 1 -6 11 6 13 3 7 -16 -20 -73 -13 -75 18 -4 20 44 36 81 36 82 0 2 4 3 8 3 4 0 8 -9 8 -20 0 -11 -5 -20 -10 -20 -5 0 0 -10 11 -22 56 -62 57 -119 6 -232 -44 -96 -47 -140 -13 -168 30 -25 66 -17 102 22 61 66 58 171 -10 303 -2 4 12 7 32 7 49 0 79 13 119 54 l35 34 -9 123 c-5 68 -7 124 -6 126 2 1 16 -41 31 -95 58 -199 86 -252 136 -252 22 0 39 12 74 52 35 40 44 46 39 27 -6 -24 -6 -24 16 4 30 37 55 34 108 -13 50 -44 92 -52 131 -24 29 20 28 25 -13 53 -20 13 -33 26 -30 29 2 3 28 -11 57 -31 92 -63 165 -79 238 -53 l35 13 -35 15 c-19 8 -75 41 -125 72 -99 62 -179 91 -228 82 -37 -7 -102 -44 -93 -53 3 -3 -2 -12 -12 -20 -15 -13 -15 -13 8 -7 29 9 66 7 84 -3 20 -12 86 -72 86 -78 0 -16 -52 0 -94 30 -50 35 -80 43 -91 25 -3 -5 -10 -10 -15 -10 -11 0 -4 40 10 54 21 21 9 23 -30 4 -52 -26 -89 -17 -134 32 -35 39 -86 128 -86 151 0 7 10 -3 23 -22 27 -40 61 -54 110 -45 37 7 37 7 24 38 -12 31 -15 32 -63 29 -39 -2 -54 2 -68 18 -10 11 -23 18 -29 15 -8 -2 -37 61 -77 164 -71 183 -128 307 -191 413 -56 93 -68 98 -19 7z m-42 -166 c-4 -2 -6 -8 -2 -13 3 -5 0 -9 -5 -9 -6 0 -11 -7 -11 -15 0 -21 28 -19 32 3 3 14 5 14 9 2 4 -8 3 -25 -2 -38 -7 -19 -15 -23 -41 -20 -29 3 -33 7 -36 36 -3 27 1 35 17 39 12 3 21 10 21 15 0 5 -5 6 -12 2 -8 -5 -9 -2 -5 10 4 10 7 25 7 34 0 11 7 6 19 -13 10 -16 14 -32 9 -33z m-114 -33 c46 -37 24 -109 -35 -109 -27 0 -69 39 -69 65 0 24 41 65 65 65 7 0 24 -9 39 -21z m41 2 c-3 -6 -11 -8 -17 -5 -6 4 -5 9 3 15 16 10 23 4 14 -10z m144 -80 c28 -65 27 -68 -10 -32 -17 17 -37 31 -45 31 -12 0 -12 4 3 25 10 13 21 25 24 25 4 0 16 -22 28 -49z m-297 1 c13 -26 13 -28 -19 -43 -18 -9 -33 -13 -33 -8 0 9 32 79 36 79 1 0 9 -12 16 -28z m176 10 c2 -7 -3 -12 -12 -12 -9 0 -16 7 -16 16 0 17 22 14 28 -4z m98 -66 c44 -44 46 -92 7 -136 -31 -35 -76 -42 -117 -20 -58 31 -67 117 -17 162 44 39 84 37 127 -6z m-172 -1 c-4 -8 -10 -15 -14 -15 -4 0 -13 7 -20 15 -11 13 -8 15 13 15 19 0 25 -4 21 -15z m-144 -105 c11 -11 27 -20 35 -20 20 0 19 -16 0 -24 -9 -3 -22 -20 -30 -38 l-13 -33 -6 35 c-9 58 -13 100 -9 100 2 0 12 -9 23 -20z m140 -19 c6 -13 8 -21 3 -19 -4 3 -16 8 -27 12 -15 5 -16 9 -6 21 7 9 14 14 15 13 1 -2 8 -14 15 -27z m220 -80 l-11 -41 -23 27 -24 27 29 27 c16 15 30 33 30 41 1 7 4 1 6 -14 2 -14 -1 -45 -7 -67z m-436 28 c9 -28 36 -90 61 -136 48 -90 51 -98 36 -88 -6 3 -7 -9 -4 -30 7 -46 -17 -75 -64 -75 -26 0 -36 6 -45 25 -14 32 5 59 39 52 23 -4 23 -3 7 14 -22 25 -65 24 -97 -1 -14 -11 -27 -20 -29 -20 -6 0 9 114 23 175 13 53 45 135 53 135 3 0 12 -23 20 -51z m223 9 c33 -30 31 -80 -3 -107 -35 -28 -69 -26 -99 4 -34 33 -33 77 1 104 34 27 72 27 101 -1z m62 -17 c7 -5 10 -14 7 -20 -11 -17 -23 -13 -29 9 -6 22 0 25 22 11z m84 -22 c27 -15 37 -28 37 -53 0 -48 -70 -75 -104 -40 -24 23 -20 70 6 88 27 19 33 19 61 5z m-93 -88 c6 -13 8 -21 3 -19 -4 3 -16 8 -27 12 -15 5 -16 9 -6 21 7 9 14 14 15 13 1 -2 8 -14 15 -27z m-115 -41 c-7 -8 -15 -26 -17 -40 l-4 -25 -11 25 c-6 14 -18 41 -26 61 l-16 35 44 -20 c38 -18 42 -23 30 -36z m228 -8 c-4 -18 -8 -20 -20 -10 -13 10 -13 14 3 25 22 16 25 13 17 -15z m-59 -3 c-6 -11 -24 -2 -24 11 0 5 7 7 15 4 8 -4 12 -10 9 -15z m10 -96 c-28 -64 -44 -86 -44 -60 0 9 -8 21 -17 26 -17 9 -16 11 5 27 13 9 27 27 32 40 6 14 18 24 30 24 19 0 19 -2 -6 -57z m-141 -17 c16 -13 15 -46 -2 -46 -7 0 -31 44 -31 55 0 9 15 4 33 -9z m-618 -47 c19 -19 19 -19 -12 -7 -29 11 -35 9 -85 -25 -77 -53 -118 -49 -60 5 61 60 115 69 157 27z"/>
 <path d="M4776 1274 c-19 -19 -20 -36 -4 -52 17 -17 46 -15 56 6 19 36 -24 75 -52 46z"/>
 <path d="M5758 1573 c-11 -3 -18 -14 -18 -29 0 -50 -43 -104 -82 -104 -7 0 1 9 18 19 37 22 64 85 45 104 -8 8 -11 6 -11 -8 0 -31 -36 -83 -71 -100 -41 -22 -25 -40 26 -31 49 10 104 61 114 109 9 40 6 46 -21 40z"/>
 <path d="M5021 1391 c38 -76 54 -100 73 -105 13 -3 32 -9 43 -13 10 -4 -4 19 -33 53 -28 32 -68 83 -88 112 -21 28 -39 52 -40 52 -2 0 19 -44 45 -99z"/>
 <path d="M4447 1397 c-31 -40 -65 -81 -77 -92 -11 -10 -20 -22 -20 -26 0 -10 61 10 76 25 11 11 86 166 80 166 -2 0 -28 -33 -59 -73z"/>
 <path d="M4335 1245 c-57 -27 -144 -98 -188 -153 -40 -49 -88 -152 -94 -203 l-6 -40 -26 24 c-37 36 -98 65 -147 73 -59 9 -128 -9 -269 -71 -66 -29 -138 -58 -160 -65 -55 -18 -145 -16 -183 4 -45 23 -39 3 11 -37 39 -32 103 -58 172 -71 58 -10 152 14 216 55 33 22 92 56 131 77 62 32 81 37 137 37 51 0 73 -5 96 -21 17 -12 35 -19 42 -17 6 2 14 -1 18 -6 17 -28 33 -6 48 67 29 131 114 259 228 341 50 37 42 39 -26 6z"/>
 <path d="M5125 1248 c65 -46 151 -146 183 -210 38 -77 62 -151 62 -192 0 -25 3 -27 23 -21 12 3 28 7 34 7 7 1 11 4 8 6 -3 3 0 11 5 17 16 19 -23 131 -71 203 -57 87 -159 171 -246 202 l-28 10 30 -22z"/>
 <path d="M4339 1206 c-30 -24 -69 -61 -86 -82 -34 -43 -67 -104 -60 -110 7 -8 73 -7 85 0 7 4 12 17 12 29 0 31 44 122 81 168 17 22 29 39 27 39 -1 0 -28 -20 -59 -44z"/>
 <path d="M5118 1216 c39 -45 78 -120 87 -168 4 -23 14 -38 25 -41 27 -7 70 4 70 17 0 37 -132 185 -194 218 -16 9 -13 2 12 -26z"/>
 <path d="M4360 1175 c-35 -51 -63 -112 -58 -127 5 -15 55 63 78 122 11 28 18 50 15 50 -2 0 -18 -20 -35 -45z"/>
 <path d="M5106 1190 c8 -30 35 -84 63 -125 16 -22 21 -25 21 -12 0 23 -42 105 -69 137 l-22 25 7 -25z"/>
 <path d="M4056 1049 c-27 -17 -76 -42 -108 -57 l-60 -25 48 -18 c26 -10 57 -27 69 -39 25 -23 35 -18 35 19 0 26 14 57 51 118 12 18 19 33 17 33 -2 0 -25 -14 -52 -31z"/>
 <path d="M5416 1023 c18 -30 35 -72 39 -94 6 -36 9 -39 23 -26 20 17 78 47 107 56 15 5 -6 19 -91 62 l-111 56 33 -54z"/>
 <path d="M4330 1050 c0 -7 3 -10 7 -7 3 4 3 10 0 14 -4 3 -7 0 -7 -7z"/>
 <path d="M5160 1040 c0 -7 3 -10 7 -7 3 4 3 10 0 14 -4 3 -7 0 -7 -7z"/>
 <path d="M3160 928 c0 -13 9 -34 20 -48 l20 -25 -2 45 c-2 33 -7 46 -20 48 -13 3 -18 -3 -18 -20z"/>
 <path d="M5569 931 c-46 -18 -119 -69 -119 -83 0 -4 15 1 33 12 67 41 143 25 292 -65 127 -76 160 -88 240 -89 85 0 156 27 212 80 46 43 47 44 14 28 -42 -20 -141 -22 -196 -4 -22 7 -87 34 -145 61 -110 49 -207 79 -256 79 -16 -1 -50 -9 -75 -19z"/>
 <path d="M6297 943 c-3 -4 -5 -25 -5 -47 0 -38 0 -38 19 -20 25 25 29 67 7 72 -9 2 -18 -1 -21 -5z"/>
 <path d="M4256 908 c-10 -6 -38 -8 -62 -5 -48 5 -54 -2 -54 -59 0 -38 14 -43 59 -20 26 14 87 83 79 91 -2 2 -12 -1 -22 -7z"/>
 <path d="M5219 903 c30 -50 83 -93 118 -93 24 0 28 19 14 70 -6 22 -11 24 -53 21 -26 -1 -56 3 -68 9 -19 10 -20 10 -11 -7z"/>
 <path d="M4083 520 c32 -25 37 -73 10 -89 -16 -9 -15 -10 8 -11 32 0 49 17 49 50 0 32 -24 56 -65 65 l-30 6 28 -21z"/>
 <path d="M5382 530 c-55 -23 -51 -110 5 -110 24 1 25 2 11 11 -21 12 -24 59 -6 77 7 7 26 12 43 12 23 0 26 3 15 10 -18 12 -38 12 -68 0z"/>
 <path d="M4255 398 c-22 -22 -30 -34 -18 -26 21 13 69 68 61 68 -2 0 -22 -19 -43 -42z"/>
 <path d="M3980 391 c0 -9 49 -56 53 -50 1 2 -10 16 -25 31 -15 15 -28 23 -28 19z"/>
 <path d="M5282 354 c10 -10 20 -15 24 -12 3 4 -5 12 -18 18 -22 12 -22 12 -6 -6z"/>
 </g>

</svg>